<mxfile host="app.diagrams.net" agent="Mozilla/5.0 (Windows NT 10.0; Win64; x64) AppleWebKit/537.36 (KHTML, like Gecko) Chrome/136.0.0.0 Safari/537.36 Edg/136.0.0.0" version="26.2.15">
  <diagram name="第 1 页" id="ttfqqxGrCTiPBYPnvHxl">
    <mxGraphModel dx="2314" dy="2449" grid="1" gridSize="10" guides="1" tooltips="1" connect="1" arrows="1" fold="1" page="1" pageScale="1" pageWidth="827" pageHeight="1169" math="0" shadow="0">
      <root>
        <mxCell id="0" />
        <mxCell id="1" parent="0" />
        <mxCell id="QCbK4rGyloYIYMNYVspa-26" value="文件系统" style="whiteSpace=wrap;strokeWidth=2;verticalAlign=top;fontSize=18;" vertex="1" parent="1">
          <mxGeometry x="825" y="170" width="310" height="148" as="geometry" />
        </mxCell>
        <mxCell id="QCbK4rGyloYIYMNYVspa-28" value="后端服务" style="whiteSpace=wrap;strokeWidth=2;verticalAlign=top;fontSize=18;" vertex="1" parent="1">
          <mxGeometry x="340" y="-12" width="1540" height="148" as="geometry" />
        </mxCell>
        <mxCell id="QCbK4rGyloYIYMNYVspa-29" value="前端界面" style="whiteSpace=wrap;strokeWidth=2;fontSize=18;" vertex="1" parent="1">
          <mxGeometry x="335" y="-220" width="1545" height="148" as="geometry" />
        </mxCell>
        <mxCell id="QCbK4rGyloYIYMNYVspa-77" style="edgeStyle=orthogonalEdgeStyle;rounded=0;orthogonalLoop=1;jettySize=auto;html=1;exitX=0.5;exitY=1;exitDx=0;exitDy=0;fontSize=18;" edge="1" parent="1" source="QCbK4rGyloYIYMNYVspa-30" target="QCbK4rGyloYIYMNYVspa-33">
          <mxGeometry relative="1" as="geometry" />
        </mxCell>
        <mxCell id="QCbK4rGyloYIYMNYVspa-30" value="发送目标检测请求 (含项目ID)" style="rounded=1;arcSize=20;strokeWidth=2;fontSize=18;" vertex="1" parent="1">
          <mxGeometry x="375" y="-185" width="240" height="78" as="geometry" />
        </mxCell>
        <mxCell id="QCbK4rGyloYIYMNYVspa-82" style="edgeStyle=orthogonalEdgeStyle;rounded=0;orthogonalLoop=1;jettySize=auto;html=1;exitX=0;exitY=0.5;exitDx=0;exitDy=0;entryX=1;entryY=0.5;entryDx=0;entryDy=0;fontSize=18;" edge="1" parent="1" source="QCbK4rGyloYIYMNYVspa-31" target="QCbK4rGyloYIYMNYVspa-32">
          <mxGeometry relative="1" as="geometry" />
        </mxCell>
        <mxCell id="QCbK4rGyloYIYMNYVspa-31" value="在图像上绘制检测框" style="rounded=1;arcSize=20;strokeWidth=2;fontSize=18;" vertex="1" parent="1">
          <mxGeometry x="1652" y="-173" width="174" height="54" as="geometry" />
        </mxCell>
        <mxCell id="QCbK4rGyloYIYMNYVspa-32" value="更新界面显示检测结果" style="rounded=1;arcSize=20;strokeWidth=2;fontSize=18;" vertex="1" parent="1">
          <mxGeometry x="1370" y="-173" width="190" height="54" as="geometry" />
        </mxCell>
        <mxCell id="QCbK4rGyloYIYMNYVspa-33" value="处理目标检测请求" style="whiteSpace=wrap;strokeWidth=2;fontSize=18;" vertex="1" parent="1">
          <mxGeometry x="365" y="23" width="260" height="78" as="geometry" />
        </mxCell>
        <mxCell id="QCbK4rGyloYIYMNYVspa-78" style="edgeStyle=orthogonalEdgeStyle;rounded=0;orthogonalLoop=1;jettySize=auto;html=1;exitX=0.5;exitY=1;exitDx=0;exitDy=0;entryX=0;entryY=0.5;entryDx=0;entryDy=0;fontSize=18;" edge="1" parent="1" source="QCbK4rGyloYIYMNYVspa-34" target="QCbK4rGyloYIYMNYVspa-40">
          <mxGeometry relative="1" as="geometry" />
        </mxCell>
        <mxCell id="QCbK4rGyloYIYMNYVspa-34" value="查询项目获取增强图像路径" style="whiteSpace=wrap;strokeWidth=2;fontSize=18;" vertex="1" parent="1">
          <mxGeometry x="675" y="35" width="252" height="54" as="geometry" />
        </mxCell>
        <mxCell id="QCbK4rGyloYIYMNYVspa-81" style="edgeStyle=orthogonalEdgeStyle;rounded=0;orthogonalLoop=1;jettySize=auto;html=1;exitX=0.5;exitY=0;exitDx=0;exitDy=0;fontSize=18;" edge="1" parent="1" source="QCbK4rGyloYIYMNYVspa-37" target="QCbK4rGyloYIYMNYVspa-31">
          <mxGeometry relative="1" as="geometry" />
        </mxCell>
        <mxCell id="QCbK4rGyloYIYMNYVspa-37" value="返回检测结果JSON响应" style="whiteSpace=wrap;strokeWidth=2;fontSize=18;" vertex="1" parent="1">
          <mxGeometry x="1638.5" y="35" width="201.5" height="54" as="geometry" />
        </mxCell>
        <mxCell id="QCbK4rGyloYIYMNYVspa-89" style="edgeStyle=orthogonalEdgeStyle;rounded=0;orthogonalLoop=1;jettySize=auto;html=1;exitX=1;exitY=0.5;exitDx=0;exitDy=0;" edge="1" parent="1" source="QCbK4rGyloYIYMNYVspa-38" target="QCbK4rGyloYIYMNYVspa-39">
          <mxGeometry relative="1" as="geometry" />
        </mxCell>
        <mxCell id="QCbK4rGyloYIYMNYVspa-38" value="加载检测模型并执行检测" style="rounded=1;arcSize=20;strokeWidth=2;fontSize=18;" vertex="1" parent="1">
          <mxGeometry x="1060" y="35" width="206" height="54" as="geometry" />
        </mxCell>
        <mxCell id="QCbK4rGyloYIYMNYVspa-90" style="edgeStyle=orthogonalEdgeStyle;rounded=0;orthogonalLoop=1;jettySize=auto;html=1;exitX=1;exitY=0.5;exitDx=0;exitDy=0;entryX=0;entryY=0.5;entryDx=0;entryDy=0;" edge="1" parent="1" source="QCbK4rGyloYIYMNYVspa-39" target="QCbK4rGyloYIYMNYVspa-37">
          <mxGeometry relative="1" as="geometry" />
        </mxCell>
        <mxCell id="QCbK4rGyloYIYMNYVspa-39" value="返回原始检测结果 (边界框/类别/置信度)" style="whiteSpace=wrap;strokeWidth=2;fontSize=18;" vertex="1" parent="1">
          <mxGeometry x="1330" y="23" width="260" height="78" as="geometry" />
        </mxCell>
        <mxCell id="QCbK4rGyloYIYMNYVspa-87" style="edgeStyle=orthogonalEdgeStyle;rounded=0;orthogonalLoop=1;jettySize=auto;html=1;exitX=1;exitY=0.5;exitDx=0;exitDy=0;entryX=0.5;entryY=1;entryDx=0;entryDy=0;fontSize=18;" edge="1" parent="1" source="QCbK4rGyloYIYMNYVspa-40" target="QCbK4rGyloYIYMNYVspa-38">
          <mxGeometry relative="1" as="geometry" />
        </mxCell>
        <mxCell id="QCbK4rGyloYIYMNYVspa-40" value="读取增强图像文件 (outputs/)" style="whiteSpace=wrap;strokeWidth=2;fontSize=18;" vertex="1" parent="1">
          <mxGeometry x="850" y="205" width="260" height="78" as="geometry" />
        </mxCell>
        <mxCell id="QCbK4rGyloYIYMNYVspa-42" value="" style="curved=1;startArrow=none;endArrow=block;exitX=1;exitY=0.5;entryX=0;entryY=0.5;rounded=0;fontSize=18;" edge="1" parent="1" source="QCbK4rGyloYIYMNYVspa-33" target="QCbK4rGyloYIYMNYVspa-34">
          <mxGeometry relative="1" as="geometry">
            <Array as="points" />
          </mxGeometry>
        </mxCell>
      </root>
    </mxGraphModel>
  </diagram>
</mxfile>
